<?xml version="1.0" standalone="no"?><!DOCTYPE svg PUBLIC "-//W3C//DTD SVG 1.1//EN" "http://www.w3.org/Graphics/SVG/1.1/DTD/svg11.dtd"><svg t="1553311030650" class="icon" style="" viewBox="0 0 1479 1024" version="1.1" xmlns="http://www.w3.org/2000/svg" p-id="2672" xmlns:xlink="http://www.w3.org/1999/xlink" width="288.8671875" height="200"><defs><style type="text/css"></style></defs><path d="M983.487462 789.505824L742.166672 1024 496.067253 785.637409a325.060583 325.060583 0 0 1 242.117228-106.495171c98.303235 0 186.36655 42.780112 245.302981 110.363586z m248.033626-240.979459L1107.390498 669.016094a502.552536 502.552536 0 0 0-369.319794-159.515203c-144.951761 0-275.340081 60.074199-366.247818 156.101897L248.033626 545.340612a680.272042 680.272042 0 0 1 490.264632-205.822399c194.899817 0 370.57134 80.55404 493.22283 209.008152zM1479.099607 308.002013l-123.789259 120.262176a857.763995 857.763995 0 0 0-617.125867-258.5011A857.877772 857.877772 0 0 0 124.016813 425.192213L0 305.157591A1035.369725 1035.369725 0 0 1 738.184481 0.007964 1035.369725 1035.369725 0 0 1 1479.099607 308.002013z" p-id="2673" fill="#cdcdcd"></path></svg>