<?xml version="1.0" standalone="no"?><!DOCTYPE svg PUBLIC "-//W3C//DTD SVG 1.1//EN" "http://www.w3.org/Graphics/SVG/1.1/DTD/svg11.dtd"><svg t="1553600607933" class="icon" style="" viewBox="0 0 1024 1024" version="1.1" xmlns="http://www.w3.org/2000/svg" p-id="4679" xmlns:xlink="http://www.w3.org/1999/xlink" width="200" height="200"><defs><style type="text/css"></style></defs><path d="M508.58496 53.2736c-26.76224 0-45.12768 22.64064-70.17984 27.93472-39.27552 8.21248-43.11552 43.18208-77.11232 56.32512-32.4864 12.58496-97.60256 48.42496-103.16288 201.32352L229.7856 345.9584v41.79968l33.32608 79.89248 2.23744 0.22528c9.34912 42.37312 30.0544 81.4336 75.70944 128.896 33.20832 34.50368 45.80352 89.18016 41.68704 111.45728-4.57728 11.86816-14.01344 28.24192-27.82208 27.88352-13.7728-0.36864-148.78208-0.58368-208.60416 55.72096 0 0-63.11936 21.53472-83.42528 55.69024-9.14432 15.37024-13.29152 19.42016-13.37344 37.00736-0.4096 75.84256 0.03072 36.53632 0.03072 36.53632 8.87808 47.73888 9.15968 51.87584 24.77056 51.87584h868.87424c15.67232 0 15.9488-4.13696 24.8576-51.87584 0 0 3.34848-21.68832 0-36.61312-3.82976-17.16224-4.2496-21.6576-13.35808-36.992-20.37248-34.16576-83.64032-55.69024-83.64032-55.69024-59.91936-56.3456-195.2-56.11008-208.98816-55.74144-13.82912 0.32768-23.29088-15.99488-27.84256-27.8528-4.1216-22.31296 8.50944-76.97408 41.79968-111.50336 45.7216-47.45216 66.46784-86.48192 75.84256-128.896l2.24768-0.2304 33.3824-79.89248v-41.7792l-28.4416-7.08608c-5.59104-152.87808-70.7584-188.75904-103.33184-201.33888-34.02752-13.12768-37.86752-48.09728-77.25056-56.32512-25.12384-5.21216-43.1104-27.8528-69.888-27.8528z m43.33568 803.24608l-19.49184 34.94912a11.55072 11.55072 0 0 1-9.90208 5.86752h-0.11776a11.47904 11.47904 0 0 1-9.92256-5.68832l-20.26496-34.94912a11.32032 11.32032 0 0 1-0.77824-9.9584l20.29056-51.25632a11.4176 11.4176 0 0 1 10.72128-7.23456c4.7616 0.07168 8.91904 3.01568 10.63936 7.40352l19.46112 51.25632a11.67872 11.67872 0 0 1-0.63488 9.61024z" p-id="4680" fill="#ffffff"></path></svg>