<?xml version="1.0" standalone="no"?><!DOCTYPE svg PUBLIC "-//W3C//DTD SVG 1.1//EN" "http://www.w3.org/Graphics/SVG/1.1/DTD/svg11.dtd"><svg t="1553075284380" class="icon" style="" viewBox="0 0 1024 1024" version="1.1" xmlns="http://www.w3.org/2000/svg" p-id="3994" xmlns:xlink="http://www.w3.org/1999/xlink" width="200" height="200"><defs><style type="text/css"></style></defs><path d="M939.264 332.12C846.832 112.632 603.12-1.112 375.52 69.024S10.496 370.344 57.64 603.8s263.52 393.184 500.504 369.496S975.592 750.192 975.592 512a460.648 460.648 0 0 0-36.328-179.912z m-201.16 7.296L626.68 596.368a35.4 35.4 0 0 1-18.592 18.48L335.064 731.272a35.408 35.408 0 0 1-46.216-46.984l115.544-259.064a35.4 35.4 0 0 1 18.48-18.16l268.88-114.312a35.408 35.408 0 0 1 46.32 46.656z m0 0" fill="#dbdbdb" p-id="3995"></path><path d="M471.816 512a41.6 41.6 0 1 0 20.8-36 41.6 41.6 0 0 0-20.8 36z m0 0" fill="#dbdbdb" p-id="3996"></path></svg>