<?xml version="1.0" standalone="no"?><!DOCTYPE svg PUBLIC "-//W3C//DTD SVG 1.1//EN" "http://www.w3.org/Graphics/SVG/1.1/DTD/svg11.dtd"><svg t="1553645293451" class="icon" style="" viewBox="0 0 1024 1024" version="1.1" xmlns="http://www.w3.org/2000/svg" p-id="13952" xmlns:xlink="http://www.w3.org/1999/xlink" width="200" height="200"><defs><style type="text/css"></style></defs><path d="M761.766481 201.418696c34.299561 0 62.274379 27.974819 62.274379 62.274379 0 34.299561-27.974819 62.274379-62.274379 62.27438-34.299561 0-62.274379-27.974819-62.27438-62.27438 0-34.299561 27.974819-62.274379 62.27438-62.274379m-499.776221 0c34.299561 0 62.274379 27.974819 62.27438 62.274379 0 34.299561-27.974819 62.274379-62.27438 62.27438-34.299561 0-62.274379-27.974819-62.274379-62.27438 0-34.299561 27.974819-62.274379 62.274379-62.274379m498.924813 311.371897c34.299561 0 62.274379 27.974819 62.274379 62.274379v249.097518H698.640694V575.064972c0-34.299561 28.096449-62.274379 62.274379-62.274379m-498.195035 0c34.299561 0 62.274379 27.974819 62.274379 62.274379v249.097518H200.445659V575.064972c0-34.299561 28.096449-62.274379 62.274379-62.274379m499.046443-373.646277c-68.477491 0-124.548759 56.071267-124.548759 124.548759 0 68.477491 56.071267 124.548759 124.548759 124.548759 68.477491 0 124.548759-56.071267 124.548758-124.548759 0-68.599121-56.071267-124.548759-124.548758-124.548759z m-499.776221 0c-68.477491 0-124.548759 56.071267-124.548759 124.548759 0 68.477491 56.071267 124.548759 124.548759 124.548759 68.477491 0 124.548759-56.071267 124.548759-124.548759 0-68.599121-55.341489-124.548759-124.548759-124.548759z m498.924813 311.371897c-68.477491 0-124.548759 56.071267-124.548759 124.548759v49.868155l-125.278536 72.369641-123.818981-71.639863v-47.435562c0-60.693194-42.083858-114.453498-101.195867-125.278537C207.500178 437.98836 138.171279 498.681554 138.171279 575.064972v280.234707c0 17.14978 13.987409 31.13719 31.13719 31.13719h186.823138c17.14978 0 31.13719-13.987409 31.13719-31.13719v-158.118541l107.398978 62.274379c0.729778 0 0.729778 0.729778 1.581186 0.729778 4.621927 3.162371 10.095261 3.892149 15.568595 3.892149s10.095261-1.581185 15.568594-3.892149l108.980164-63.855565v158.84832c0 17.14978 13.987409 31.13719 31.13719 31.137189h186.823138c17.14978 0 31.13719-13.987409 31.13719-31.137189V575.064972c0-68.599121-56.071267-124.548759-124.548759-124.548759z m0 0" fill="#1296db" p-id="13953"></path></svg>