<?xml version="1.0" standalone="no"?><!DOCTYPE svg PUBLIC "-//W3C//DTD SVG 1.1//EN" "http://www.w3.org/Graphics/SVG/1.1/DTD/svg11.dtd"><svg t="1553645392032" class="icon" style="" viewBox="0 0 1024 1024" version="1.1" xmlns="http://www.w3.org/2000/svg" p-id="17403" xmlns:xlink="http://www.w3.org/1999/xlink" width="200" height="200"><defs><style type="text/css"></style></defs><path d="M512 78C272.7 78 78 272.7 78 512s194.7 434 434 434 434-194.7 434-434S751.3 78 512 78z m280.8 714.8C717.8 867.8 618.1 909 512 909s-205.8-41.3-280.8-116.3C156.2 717.8 115 618.1 115 512s41.3-205.8 116.3-280.8S405.9 115 512 115s205.8 41.3 280.8 116.3S909.1 406 909.1 512.1s-41.3 205.7-116.3 280.7z" p-id="17404" fill="#1296db"></path><path d="M618.1 298c-23 0-44.9 6-63.4 17.2l-0.2 0.1c-36.4 20.5-58.1 56.4-58.1 96v204.3c0 26-14.8 50.1-39.7 64.3-14.2 7.9-30.1 12-46 12-47.2 0-85.6-34.3-85.6-76.4 0-13.2 3.4-25.5 10.2-36.4 10-16.9 27.8-29.9 50-36.7 3.4-1.3 6.1-1.3 7.3-1.3 10.4 0 18.5-8.1 18.5-18.5s-8.1-18.5-18.5-18.5c-5.3 0-10.6 0.9-18.9 3.2-29.7 8.8-54.5 27.5-69.8 52.6-10.3 17.3-15.7 36.5-15.7 55.6 0 62.5 55 113.3 122.6 113.3 22.6 0 44.8-5.8 64-16.8 36.4-20.5 58.1-56.4 58.1-96V411.3c0-26 14.8-50.1 39.7-64.3 14.2-7.9 30.1-12 46-12 47 0 85.2 34.3 85.2 76.4 0 13.2-3.4 25.4-10.1 36.3-10.1 17.5-27.9 30.5-50.2 36.8-3.4 1.3-6.1 1.3-7.3 1.3-10.4 0-18.5 8.1-18.5 18.5s8.1 18.5 18.5 18.5c5.6 0 11.4-1 18.8-3.2 29.7-8.8 54.6-27.5 69.9-52.6 10.3-17.3 15.7-36.5 15.7-55.6 0.1-62.6-54.9-113.4-122.5-113.4z" p-id="17405" fill="#1296db"></path></svg>