<?xml version="1.0" standalone="no"?><!DOCTYPE svg PUBLIC "-//W3C//DTD SVG 1.1//EN" "http://www.w3.org/Graphics/SVG/1.1/DTD/svg11.dtd"><svg t="1553645177280" class="icon" style="" viewBox="0 0 1024 1024" version="1.1" xmlns="http://www.w3.org/2000/svg" p-id="11669" xmlns:xlink="http://www.w3.org/1999/xlink" width="200" height="200"><defs><style type="text/css"></style></defs><path d="M756.148148 350.72v-36.788148c0-27.022222-21.807407-48.924444-48.829629-49.114074l-181.285926-1.137778S507.448889 70.731852 264.438519 70.731852C50.062222 70.731852 68.645926 242.251852 68.645926 242.251852s25.694815 261.594074 32.900741 298.761481c7.111111 37.167407 30.056296 64.284444 62.862222 58.595556 32.900741-5.688889 58.595556-31.478519 57.173333-91.496296-0.758519-32.331852 1.327407-66.74963 3.508148-91.591112 1.706667-20.100741 18.583704-35.555556 38.77926-35.46074l459.188148 2.465185c18.204444 0.18963 33.09037-14.601481 33.09037-32.805926zM268.325926 674.891852v36.788148c0 27.022222 21.807407 48.924444 48.82963 49.114074l181.285925 1.137778s18.583704 192.948148 261.594075 192.948148c214.376296 0 195.792593-171.52 195.792592-171.52S930.133333 521.765926 922.927407 484.598519c-7.111111-37.167407-30.056296-64.284444-62.862222-58.595556-32.900741 5.688889-58.595556 31.478519-57.173333 91.496296 0.758519 32.331852-1.327407 66.74963-3.508148 91.591111-1.706667 20.100741-18.583704 35.555556-38.77926 35.460741l-459.188148-2.465185c-18.299259-0.094815-33.09037 14.601481-33.09037 32.805926z" p-id="11670" fill="#1296db"></path></svg>