<?xml version="1.0" standalone="no"?><!DOCTYPE svg PUBLIC "-//W3C//DTD SVG 1.1//EN" "http://www.w3.org/Graphics/SVG/1.1/DTD/svg11.dtd"><svg t="1553645215503" class="icon" style="" viewBox="0 0 1024 1024" version="1.1" xmlns="http://www.w3.org/2000/svg" p-id="13136" xmlns:xlink="http://www.w3.org/1999/xlink" width="200" height="200"><defs><style type="text/css"></style></defs><path d="M861.155656 628.459409l17.304108-6.609535c27.377534-10.490935 41.535999-40.756239 32.018228-68.465325L814.207391 273.006837c-8.492418-24.811082-33.089629-39.248909-57.986669-36.20048l-26.200732-97.79021c-14.46034-53.942563-70.178339-85.99456-124.077923-71.621201L294.156018 150.950967c-26.158776 6.984065-47.996131 23.763217-61.535495 47.194882-13.517875 23.442922-17.111726 50.755987-10.117428 76.883041l14.480806 53.985542c-8.277524 3.860934-16.256242 8.983605-23.271006 16.576537-12.19167 13.186324-23.998577 31.238468-34.073027 48.777937-19.934005 34.767851-23.313985 76.571956-9.56075 114.206088l38.778189 106.260116-77.085656 58.883085c-24.87555 18.983353-29.111015 54.819536-9.346879 79.08622l128.889509 158.352541c16.768919 20.608364 45.772486 26.436092 69.214385 13.902638l67.011206-35.826974c13.710256 42.360783 53.06559 70.177316 96.122221 70.177316 8.640798 0 17.433044-1.12359 26.180266-3.443425l311.807538-83.554998c53.963029-14.480806 86.089727-70.134337 71.631434-124.098389l-32.125675-119.853715z m-56.510038 180.47949L492.83808 892.473431c-18.993586 5.16565-38.521339-6.223748-43.633777-25.164123l-86.069261-321.346799c20.640086 11.538801 50.2648 22.992667 88.807629 24.329105 36.147268 1.251503 57.044204-29.676903 63.055105-51.53677 8.127098-29.590945-5.176906-60.893882-30.480199-78.304413-50.542116-34.842553-146.621359-100.613512-162.79062-108.720144-4.641717-2.320858-10.843976-4.555759-17.73185-6.438643l-18.030655-67.289545c-2.460028-9.175987-1.197268-18.768459 3.550873-27.003004 4.76963-8.234545 12.44852-14.106276 21.624506-16.576537l311.808562-83.556022a35.111682 35.111682 0 0 1 9.197476-1.230014c15.719007 0 30.157857 10.512425 34.414811 26.394137l27.440979 102.44216-32.254611 12.128225c-28.512381 10.759041-42.649356 42.841737-31.292704 71.139224l110.367667 275.446399c9.53926 23.763217 33.945113 37.034475 58.262961 33.506115l30.737049 114.65532c5.067412 18.950607-6.224772 38.511105-25.176403 43.590797" fill="#1296db" p-id="13137"></path><path d="M666.623102 730.290655l-83.24596 22.320355c-17.517979 4.683672-27.912723 22.714328-23.228027 40.232306 3.935636 14.673188 17.216103 24.351618 31.718399 24.351618 2.801812 0 5.668093-0.363274 8.513907-1.112334l83.24596-22.320355c17.538445-4.683672 27.933189-22.714328 23.228027-40.232306-4.683672-17.516956-22.715351-27.79402-40.232306-23.239284" fill="#1296db" p-id="13138"></path></svg>