<?xml version="1.0" standalone="no"?><!DOCTYPE svg PUBLIC "-//W3C//DTD SVG 1.1//EN" "http://www.w3.org/Graphics/SVG/1.1/DTD/svg11.dtd"><svg t="1553560536932" class="icon" style="" viewBox="0 0 1024 1024" version="1.1" xmlns="http://www.w3.org/2000/svg" p-id="10839" xmlns:xlink="http://www.w3.org/1999/xlink" width="22" height="22"><defs><style type="text/css"></style></defs><path d="M735.44 553.37c11.42 0 21.77 4.63 29.3 12.08 7.45 7.53 12.08 17.88 12.08 29.3 0 11.42-4.63 21.77-12.08 29.3-7.53 7.45-17.88 12.08-29.3 12.08-22.84 0-41.38-18.54-41.38-41.38 0-11.42 4.63-21.77 12.08-29.3 7.54-7.45 17.88-12.08 29.3-12.08z" p-id="10840" fill="#1296db"></path><path d="M925.78 470.61H735.44c-34.26 0-65.3 13.9-87.72 36.41-22.51 22.43-36.41 53.46-36.41 87.72 0 68.52 55.61 124.13 124.13 124.13h190.34V843c0 45.68-37.07 82.76-82.76 82.76H180.97c-45.68 0-82.76-37.08-82.76-82.76V346.48c0-45.68 37.07-82.76 82.76-82.76h662.05c45.68 0 82.76 37.07 82.76 82.76v124.13zM703.33 214.07h-344.6l192.16-105.6c40.05-22.01 90.37-7.37 112.38 32.69l40.06 72.91z" p-id="10841" fill="#1296db"></path><path d="M764.74 565.45c7.45 7.53 12.08 17.88 12.08 29.3 0 11.42-4.63 21.77-12.08 29.3-7.53 7.45-17.88 12.08-29.3 12.08-22.84 0-41.38-18.54-41.38-41.38 0-11.42 4.63-21.77 12.08-29.3 7.53-7.45 17.88-12.08 29.3-12.08 11.42 0 21.77 4.63 29.3 12.08z" p-id="10842" fill="#1296db"></path><path d="M776.82 594.75c0 11.42-4.63 21.77-12.08 29.3-7.53 7.45-17.88 12.08-29.3 12.08-22.84 0-41.38-18.54-41.38-41.38 0-11.42 4.63-21.77 12.08-29.3 7.53-7.45 17.88-12.08 29.3-12.08 11.42 0 21.77 4.63 29.3 12.08 7.45 7.53 12.08 17.88 12.08 29.3z" p-id="10843" fill="#1296db"></path></svg>