<?xml version="1.0" standalone="no"?><!DOCTYPE svg PUBLIC "-//W3C//DTD SVG 1.1//EN" "http://www.w3.org/Graphics/SVG/1.1/DTD/svg11.dtd"><svg t="1553081843895" class="icon" style="" viewBox="0 0 1024 1024" version="1.1" xmlns="http://www.w3.org/2000/svg" p-id="1704" xmlns:xlink="http://www.w3.org/1999/xlink" width="200" height="200"><defs><style type="text/css"></style></defs><path d="M488.329846 302.119385l-263.522461 263.522461a29.105231 29.105231 0 0 0 0 41.905231 29.105231 29.105231 0 0 0 41.90523 0l219.372308-219.372308v469.031385c0 14.966154 11.854769 26.860308 26.899692 26.860308a26.702769 26.702769 0 0 0 26.860308-26.860308V388.174769l219.372308 219.372308a29.105231 29.105231 0 0 0 41.944615 0 29.105231 29.105231 0 0 0 0-41.905231l-263.325538-263.483077a24.024615 24.024615 0 0 0-13.981539-7.522461 24.615385 24.615385 0 0 0-10.791384-2.12677 24.615385 24.615385 0 0 0-10.752 2.12677 34.776615 34.776615 0 0 0-13.981539 7.483077z m345.993846-159.665231H188.928a26.702769 26.702769 0 0 0-26.860308 26.899692c0 15.005538 11.854769 26.899692 26.860308 26.899692h645.395692a26.702769 26.702769 0 0 0 26.899693-26.899692 26.702769 26.702769 0 0 0-26.899693-26.899692z" fill="#bfbfbf" p-id="1705"></path></svg>