<?xml version="1.0" standalone="no"?><!DOCTYPE svg PUBLIC "-//W3C//DTD SVG 1.1//EN" "http://www.w3.org/Graphics/SVG/1.1/DTD/svg11.dtd"><svg t="1553075254734" class="icon" style="" viewBox="0 0 1024 1024" version="1.1" xmlns="http://www.w3.org/2000/svg" p-id="3121" xmlns:xlink="http://www.w3.org/1999/xlink" width="200" height="200"><defs><style type="text/css"></style></defs><path d="M269.963636 921.6L232.727273 723.781818c-76.8-65.163636-121.018182-155.927273-121.018182-251.345454 0-193.163636 179.2-349.090909 397.963636-349.090909 221.090909 0 397.963636 155.927273 397.963637 349.090909s-179.2 349.090909-397.963637 349.090909c-37.236364 0-74.472727-4.654545-111.709091-13.963637l-128 114.036364zM512 169.890909c-195.490909 0-351.418182 134.981818-351.418182 302.545455 0 83.781818 39.563636 162.909091 109.381818 221.090909l6.981819 4.654545 25.6 134.981818 88.436363-74.472727 11.636364 2.327273c34.909091 9.309091 72.145455 16.290909 111.709091 16.290909 195.490909 0 351.418182-134.981818 351.418182-302.545455-2.327273-167.563636-158.254545-304.872727-353.745455-304.872727z" p-id="3122" fill="#dbdbdb"></path></svg>